<svg width="468" height="468" viewBox="0 0 468 468" fill="none" xmlns="http://www.w3.org/2000/svg">
<path d="M233.977 0C298.539 0 356.985 26.1494 399.517 68.4306C441.857 110.957 467.982 169.343 467.982 233.87C467.982 298.37 441.857 356.784 399.517 399.283C356.958 441.537 298.539 467.686 233.977 467.686C169.443 467.686 110.997 441.537 68.4652 399.283C26.1522 356.756 0 298.37 0 233.87C0 169.37 26.1522 110.957 68.4652 68.4306C110.997 26.1494 169.443 0 233.977 0ZM382.209 85.7634C344.291 47.8768 291.932 24.4297 233.977 24.4297C176.022 24.4297 123.69 47.8768 85.7998 85.7634C47.9092 123.65 24.4323 175.921 24.4323 233.843C24.4323 291.765 47.9092 344.036 85.7998 381.95C123.718 419.81 176.022 443.229 233.977 443.229C291.932 443.229 344.291 419.81 382.209 381.95C420.072 344.036 443.577 291.765 443.577 233.843C443.577 175.921 420.045 123.65 382.209 85.7634Z" fill="white"/>
<path d="M271.622 317.396L222.512 227.975L218.362 220.387L224.232 214.054L367.277 56.9395C378.032 65.483 390.262 76.2376 400.554 85.5182L305.909 215.282L332.034 263.159L336.238 270.72L330.314 277.08L291.223 319.853L279.702 332.573L271.622 317.396ZM248.145 224.072L284.835 290.783L306.373 267.063L280.685 220.141L277.055 213.29L281.422 207.203L354.992 106.754L248.145 224.072Z" fill="white"/>
<path d="M187.051 142.921L236.216 232.615L240.365 240.176L234.496 246.563L93.6073 401.494C79.412 390.494 69.1477 379.985 61.5859 370.432L153.037 245.335L126.611 197.431L122.489 189.87L128.331 183.51L167.478 140.492L178.97 128.045L187.051 142.921ZM210.528 236.546L173.866 169.562L152.327 193.528L178.015 240.449L181.673 247.273L177.251 253.387L103.899 353.809L210.528 236.546Z" fill="white"/>
</svg>
